<?xml version="1.0" encoding="UTF-8" standalone="no"?>
<svg
   width="661"
   height="655"
   version="1.1"
   id="svg218"
   sodipodi:docname="coffee-cup.svg"
   inkscape:version="1.2.1 (9c6d41e410, 2022-07-14)"
   xmlns:inkscape="http://www.inkscape.org/namespaces/inkscape"
   xmlns:sodipodi="http://sodipodi.sourceforge.net/DTD/sodipodi-0.dtd"
   xmlns="http://www.w3.org/2000/svg"
   xmlns:svg="http://www.w3.org/2000/svg">
  <defs
     id="defs222" />
  <sodipodi:namedview
     id="namedview220"
     pagecolor="#ffffff"
     bordercolor="#000000"
     borderopacity="0.25"
     inkscape:showpageshadow="2"
     inkscape:pageopacity="0.0"
     inkscape:pagecheckerboard="0"
     inkscape:deskcolor="#d1d1d1"
     showgrid="false"
     inkscape:zoom="1.2381679"
     inkscape:cx="330.32676"
     inkscape:cy="327.5"
     inkscape:window-width="1920"
     inkscape:window-height="1001"
     inkscape:window-x="-9"
     inkscape:window-y="-9"
     inkscape:window-maximized="1"
     inkscape:current-layer="svg218" />
  <path
     style="fill:#017979; stroke:none;"
     d="M310 0.333313C280.612 6.04755 250.731 6.32697 222 17.5C131.228 52.7999 52.0483 120.781 19.3333 215C-0.320677 271.604 -7.56845 337.122 6.33333 396C40.8348 542.124 169.312 655 322 655C345.026 655 368.469 656.361 391 651.667C426.028 644.369 460.442 633.532 492 616C584.75 564.472 650.736 468.572 661 363C676.036 208.347 576.822 51.1223 423 12.6667C394.072 5.43463 366.062 0 336 0C327.671 0 318.174 -1.2561 310 0.333313z"
     id="path180" />
  <path
     style="fill:#019579; stroke:none;"
     d="M283 3L284 4L283 3M324 33.3333C315.298 35.0253 305.839 34.1407 297 35C279.874 36.6651 262.593 40.7242 246 45.3333C164.63 67.9359 95.9563 129.21 60.1667 205C46.2509 234.469 38.1372 266.732 35 299C31.5594 334.389 33.7584 370.53 43.3333 405C84.7215 553.997 237.967 647.034 389 617.667C500.095 596.065 589.462 511.739 619.667 403C630.534 363.878 629.881 323.916 626 284C615.026 171.123 518.865 74.0734 413 44.6667C389.781 38.217 366.99 34.9996 343 34C336.689 33.7371 330.416 32.0857 324 33.3333z"
     id="path184" />
  <path
     style="fill:#61beac; stroke:none;"
     d="M410 199L410 200L422 200L410 199M397 200L397 201L402 201L397 200z"
     id="path186" />
  <path
     style="fill:#f4fbf9; stroke:none;"
     d="M385 203L385 204C392.624 206.809 401.624 211.86 406 219C376.052 213.483 366.625 252.22 337 253C341.609 260.961 351.421 263 360 263C351.993 274.282 331.059 273.952 319 273L329 284L247 284C232.597 284 217.379 282.239 205 291C181.025 307.967 198.041 333.302 189 355C185.306 363.866 177.162 368.109 168 369C165.023 369.289 157.467 367.435 155.5 370.167C151.815 375.285 159.013 376 162 376C170.386 376 178.75 376.6 186 371.667C213.448 352.987 181.902 309.795 216 294.167C225.041 290.023 237.253 292 247 292L310 292C318.634 292 340.875 295.727 337 281C346.794 279.196 358.361 276.877 365.833 269.667C372.458 263.275 366.396 256 359 256C361.765 252.229 367.342 250.302 371 247C377.612 241.031 382.508 231.538 391 228C397.227 225.405 408.723 228.59 412.833 223C416.559 217.933 411.079 211.774 408 208C422.516 208 436.843 207.873 450 215C457.209 218.905 462.322 229.641 470 231.667C475.13 233.021 478.881 228.52 479 224C489.739 231.876 476.589 240.626 478.333 249C479.255 253.422 483.377 254.647 485.833 258C488.192 261.22 486.189 264.657 488 268C490.649 272.891 503.649 278.634 503.5 284C503.44 286.157 500.797 288.981 500 291C487.939 286.874 489.886 301.304 492 308C483.036 308 472.843 303.122 464 305.333C451.964 308.342 453 327.224 453 337C437.036 327.338 440 350.434 440 359C429.295 351.676 424.198 360.7 417 368C413.565 371.483 410.955 375.7 407 378.667C404.875 380.26 400.917 380.923 399.5 383.167C397.94 385.637 399 391.154 399 394C399 402.979 396.139 417.605 399.167 426C400.936 430.905 411.525 427.685 411 437C410.685 442.596 400.927 441.436 397 441C382.689 439.41 382 408.95 382 398C382 394.852 383.457 386.889 381.5 384.333C379.122 381.228 368.546 383 365 383C349.393 383 334.081 382.856 319 378.667C308.273 375.687 298.333 368.459 291.167 360C287.071 355.166 284.367 346.279 278 344.333C267.369 341.085 259.46 353.54 253 360C245.513 367.487 232.227 376.546 227.5 386C226.061 388.878 227 393.846 227 397C227 405.403 224.591 418.04 227.167 426C228.54 430.245 232.978 428.02 235.833 430.333C239.046 432.936 239 437.276 239 441C234.118 441 225.392 442.696 221 440.5C213.894 436.947 213.365 424.792 211.667 418C204.856 390.757 218 366.636 218 340C218 329.409 217.86 320.106 220.667 310C221.327 307.622 220.717 305.013 218 304.333C213.623 303.239 212.075 308.86 211.333 312C209.281 320.694 210 330.086 210 339C210 354.186 203.438 367.211 202 382C200.828 394.05 201.554 407.276 203.833 419C205.535 427.752 206.982 441.321 215 446.667C219.614 449.743 243.852 452.124 245.833 446C247.843 439.788 246.424 429.629 242 425C239.698 422.592 235.21 422.225 234.167 419C232.502 413.854 232.096 395.808 234.5 391C238.695 382.61 250.361 374.639 257 368C260.875 364.125 268.495 353.044 274 352.167C277.47 351.613 279.686 358.72 281.333 361C287.396 369.394 295.645 377.156 305 381.833C326.168 392.417 351.962 391 375 391C375 405.696 372.575 436.679 387 446C391.603 448.974 397.799 448 403 448C406.276 448 414.123 449.452 416.833 447.5C418.929 445.991 418 441.247 418 439C418 430.379 416.653 421.28 406 421L406.5 389.167L423 374L423 410C423 414.561 421.622 421.717 423.167 426C424.899 430.802 434.528 427.503 435 436C435.5 445.003 422.172 437.075 423 445C423.473 449.523 440.488 449.73 441.833 446C443.657 440.944 442.778 428.9 439 425C436.629 422.552 432.193 422.009 430.5 419C428.872 416.105 430 410.25 430 407L430 378C430 374.911 428.807 368.681 430.5 366C433.926 360.576 438.787 372.303 439 375C451.479 371.388 447 352.374 447 343C451.482 345.241 454.952 349.023 456 354L457 354C458.781 348.36 460.425 342.91 461 337C461.566 331.182 459.587 320.868 463.167 316C470.67 305.796 502.261 327.436 498.833 305C498.504 302.844 497.854 300.91 497 299L498 298C506.091 301.407 514.161 287.183 511.667 280C509.554 273.914 501.105 270.644 497 266C491.8 260.118 494.456 252.895 486 248L486 247C499.465 237.126 486.923 210.393 472 210L472 223C466.296 218.952 462.547 212.622 456 209.167C432.588 196.81 409.93 201.032 385 203z"
     id="path188" />
  <path
     style="fill:#61beac; stroke:none;"
     d="M427 200L427 201L430 201L427 200M390 201L390 202L394 202L390 201M433 201L433 202L437 202L433 201M387.667 202.333L388.333 202.667L387.667 202.333M438 202L438 203L441 203L438 202M384 203L385 204L384 203M442.667 203.333L443.333 203.667L442.667 203.333M385.667 204.333L386.333 204.667L385.667 204.333M445.667 204.333L446.333 204.667L445.667 204.333M388 205L389 206L388 205M448 205L449 206L448 205M390 206L391 207L390 206M450.667 206.333L451.333 206.667L450.667 206.333M392 207L393 208L392 207M452 207L453 208L452 207M394 208L395 209L394 208M408 208L409 209L408 208M423 208L423 209L429 209L423 208M454.667 208.333L455.333 208.667L454.667 208.333M395.667 209.333L396.333 209.667L395.667 209.333M432 209L432 210L435 210L432 209M456 209L457 210L456 209M471 209L470 223L474 210L471 209M397 210L398 211L397 210M437.667 210.333L438.333 210.667L437.667 210.333M458 210L459 211L458 210M476 210L477 211L476 210M398 211L399 212L398 211M410 211L411 212L410 211M440.667 211.333L441.333 211.667L440.667 211.333M459 211L460 212L459 211M478 211L479 212L478 211M411 212L412 213L411 212M443.667 212.333L444.333 212.667L443.667 212.333M461 212L462 213L461 212M480 212L481 213L480 212M412 213L413 214L412 213M446 213L447 214L446 213M462 213L463 214L462 213M402 214L403 215L402 214M448.667 214.333L449.333 214.667L448.667 214.333M463 214L464 215L463 214M482 214L483 215L482 214M403 215L404 216L403 215M413.333 215.667L413.667 216.333L413.333 215.667M450 215L451 216L450 215M464 215L465 216L464 215M483 215L484 216L483 215M452 216L453 217L452 216M465 216L466 217L465 216M484 216L485 217L484 216M405 217L403 218L403 219L405 217M454 217L455 218L454 217M466 217L467 218L466 217M485 217L486 218L485 217M394 218L394 219L397 219L394 218M455 218L456 219L455 218M467 218L468 219L467 218M486 218L487 219L486 218M390.667 219.333L391.333 219.667L390.667 219.333M456 219L457 220L456 219M468 219L469 220L468 219M487.333 219.667L487.667 220.333L487.333 219.667M388 220L389 221L388 220M469 220L470 221L469 220M385.667 221.333L386.333 221.667L385.667 221.333M488.333 221.667L488.667 222.333L488.333 221.667M383.667 222.333L384.333 222.667L383.667 222.333M382 223L383 224L382 223M412 223L413 224L412 223M489.333 223.667L489.667 224.333L489.333 223.667M380 224L381 225L380 224M411 224L412 225L411 224M479 224L479 227L480 227L481 224L479 224M379 225L380 226L379 225M410 225L411 226L410 225M378 226L379 227L378 226M396 226L396 227L408 227L396 226M463 226L464 227L463 226M481 226L482 227L481 226M377 227L378 228L377 227M392.667 227.333L393.333 227.667L392.667 227.333M464 227L465 228L464 227M490 227L491 228L490 227M376 228L377 229L376 228M389 228L390 229L389 228M482.333 228.667L482.667 229.333L482.333 228.667M375 229L376 230L375 229M388 229L389 230L388 229M465 229L466 230L465 229M477 229L478 230L477 229M374 230L375 231L374 230M386 230L387 231L386 230M466.667 230.333L467.333 230.667L466.667 230.333M475 230L476 231L475 230M373 231L374 232L373 231M385 231L386 232L385 231M468.667 231.333L469.333 231.667L468.667 231.333M473.667 231.333L474.333 231.667L473.667 231.333M491 231L491 237L492 237L491 231M372 233L373 234L372 233M371 234L372 235L371 234M382 234L383 235L382 234M381 235L382 236L381 235M370 236L371 237L370 236M380 236L381 237L380 236M369 237L370 238L369 237M379 237L380 238L379 237M482.333 237.667L482.667 238.333L482.333 237.667M368 238L369 239L368 238M367 239L368 240L367 239M490.333 239.667L490.667 240.333L490.333 239.667M366 240L367 241L366 240M377 240L378 241L377 240M481 240L482 241L481 240M364 241L365 242L364 241M376 241L377 242L376 241M480 241L481 242L480 241M363 242L364 243L363 242M375 242L376 243L375 242M479.333 242.667L479.667 243.333L479.333 242.667M489 242L490 243L489 242M362 243L363 244L362 243M374 243L375 244L374 243M360 244L361 245L360 244M373 244L374 245L373 244M488 244L489 245L488 244M358.667 245.333L359.333 245.667L358.667 245.333M372 245L373 246L372 245M478 245L479 246L478 245M356.667 246.333L357.333 246.667L356.667 246.333M371 246L372 247L371 246M354.667 247.333L355.333 247.667L354.667 247.333M370 247L371 248L370 247M486 247L487 248L486 247M353 248L354 249L353 248M487 248L488 249L487 248M350 249L351 250L350 249M367 249L368 250L367 249M478.333 249.667L478.667 250.333L478.333 249.667M488 249L489 250L488 249M347.667 250.333L348.333 250.667L347.667 250.333M366 250L367 251L366 250M489 250L490 251L489 250M343 251L343 252L346 252L343 251M490 251L491 252L490 251M339 252L339 253L342 253L339 252M363 252L364 253L363 252M479 252L480 253L479 252M491 252L492 253L491 252M336 253L337 254L336 253M361 253L362 254L361 253M480 253L481 254L480 253M492 253L493 254L492 253M337 254L338 255L337 254M359 254L362 256L362 255L359 254M481.667 254.333L482.333 254.667L481.667 254.333M493.333 254.667L493.667 255.333L493.333 254.667M338 255L339 256L338 255M483 255L484 256L483 255M339 256L340 257L339 256M364 256L365 257L364 256M484 256L485 257L484 256M494.333 256.667L494.667 257.333L494.333 256.667M340 257L341 258L340 257M485 257L486 258L485 257M342 258L343 259L342 258M486.333 258.667L486.667 259.333L486.333 258.667M343 259L344 260L343 259M367 259L368 260L367 259M495 259L495 265L496 265L495 259M345 260L346 261L345 260M368 260L368 263L369 263L368 260M470 260L471 261L470 260z"
     id="path190" />
  <path
     style="fill:#f4fbf9; stroke:none;"
     d="M471 260.333C464.077 262.478 466.895 273.868 474 271.667C480.923 269.522 478.105 258.132 471 260.333z"
     id="path192" />
  <path
     style="fill:#61beac; stroke:none;"
     d="M474.667 260.333L475.333 260.667L474.667 260.333M347.667 261.333L348.333 261.667L347.667 261.333M468 261L469 262L468 261M476 261L477 262L476 261M487.333 261.667L487.667 262.333L487.333 261.667z"
     id="path194" />
  <path
     style="fill:#019579; stroke:none;"
     d="M655 261L656 262L655 261z"
     id="path196" />
  <path
     style="fill:#61beac; stroke:none;"
     d="M350 262L350 263L353 263L350 262M467 262L468 263L467 262M477 262L478 263L477 262M357 263L357 264L360 265L357 263M368 264L368 267L369 267L368 264M478 264L478 268L479 268L478 264M357 265L358 266L357 265M466.333 265.667L466.667 266.333L466.333 265.667M496 265L497 266L496 265M356 266L357 267L356 266M497 266L498 267L497 266M353.667 267.333L354.333 267.667L353.667 267.333M367 267L368 268L367 267M487 267L488 268L487 267M498 267L499 268L498 267M351.667 268.333L352.333 268.667L351.667 268.333M488 268L489 269L488 268M499 268L500 269L499 268M349.667 269.333L350.333 269.667L349.667 269.333M467 269L468 270L467 269M477 269L478 270L477 269M346.667 270.333L347.333 270.667L346.667 270.333M364 270L365 271L364 270M468 270L469 271L468 270M476 270L477 271L476 270M502 270L503 271L502 270M343 271L344 272L343 271M363 271L364 272L363 271M470 271L471 272L470 271M474.667 271.333L475.333 271.667L474.667 271.333M490 271L491 272L490 271M503 271L504 272L503 271M336 272L336 273L340 273L336 272M361 272L362 273L361 272M504 272L505 273L504 272M322 273L322 274L332 274L322 273M360 273L361 274L360 273M505 273L506 274L505 273M319 274L320 275L319 274M358 274L359 275L358 274M494 274L495 275L494 274M506 274L507 275L506 274M320 275L321 276L320 275M356 275L357 276L356 275M495 275L496 276L495 275M321 276L322 277L321 276M354 276L355 277L354 276M496 276L497 277L496 276M509 276L510 277L509 276M322 277L323 278L322 277M351.667 277.333L352.333 277.667L351.667 277.333M497 277L498 278L497 277M510 277L511 278L510 277M323 278L324 279L323 278M348.667 278.333L349.333 278.667L348.667 278.333M498 278L499 279L498 278M511.333 278.667L511.667 279.333L511.333 278.667M324 279L325 280L324 279M344.667 279.333L345.333 279.667L344.667 279.333M500 279L501 280L500 279M325 280L326 281L325 280M339 280L339 281L342 281L339 280M501 280L502 281L501 280M337.333 281.667L337.667 282.333L337.333 281.667M502 281L503 282L502 281M512 281L512 284L513 284L512 281M503 282L504 283L503 282M328 283L329 284L328 283M219 284L219 285L222 285L219 284M503 284L504 285L503 284M215.667 285.333L216.333 285.667L215.667 285.333M337.333 285.667L337.667 286.333L337.333 285.667M502.333 285.667L502.667 286.333L502.333 285.667M212.667 286.333L213.333 286.667L212.667 286.333M511 286L512 287L511 286M210.667 287.333L211.333 287.667L210.667 287.333M501 287L502 288L501 287M510.333 287.667L510.667 288.333L510.333 287.667M208.667 288.333L209.333 288.667L208.667 288.333M336 288L337 289L336 288M207 289L208 290L207 289M335 289L336 290L335 289M500 289L501 290L500 289M205 290L206 291L205 290M334 290L335 291L334 290M494 290L494 291L497 291L494 290M499 290L500 291L499 290M509 290L510 291L509 290M204 291L205 292L204 291M332 291L333 292L332 291M492.667 291.333L493.333 291.667L492.667 291.333M221 292L221 293L226 293L221 292M491 292L492 293L491 292M508 292L509 293L508 292M202 293L203 294L202 293M217.667 293.333L218.333 293.667L217.667 293.333M490.333 293.667L490.667 294.333L490.333 293.667M215 294L216 295L215 294M507 294L508 295L507 294M213 295L214 296L213 295M211 296L212 297L211 296M489 296L490 297L489 296M506 296L507 297L506 296M505 297L506 298L505 297M197 298L198 299L197 298M208 298L209 299L208 298M498 298L499 299L498 298M503 298L504 299L503 298M196 299L197 300L196 299M207 299L208 300L207 299M489.333 299.667L489.667 300.333L489.333 299.667M497 299L498 300L497 299M206 300L207 301L206 300M195 301L196 302L195 301M205 301L206 302L205 301M498 301L498 304L499 304L498 301M194 303L195 304L194 303M204 303L205 304L204 303M490 303L490 306L491 306L490 303M193.333 304.667L193.667 305.333L193.333 304.667M215 304L216 305L215 304M218 304L219 305L218 304M466 304L466 305L469 305L466 304M220 305L221 306L220 305M462.667 305.333L463.333 305.667L462.667 305.333M472 305L472 306L475 306L472 305M460 306L461 307L460 306M479 306L479 307L483 307L479 306M491.333 306.667L491.667 307.333L491.333 306.667M499 306L499 311L500 311L499 306M192 307L193 308L192 307M201 307L202 308L201 307M459 307L460 308L459 307M486 307L486 308L490 308L486 307M212 308L213 309L212 308M200 309L201 310L200 309M457 309L458 310L457 309M191.333 310.667L191.667 311.333L191.333 310.667M211.333 310.667L211.667 311.333L211.333 310.667M220 310L221 311L220 310M456 310L457 311L456 310M199 311L199 314L200 314L199 311M219.333 312.667L219.667 313.333L219.333 312.667M455 312L456 313L455 312M498 312L499 313L498 312M190 313L190 320L191 320L190 313M210 313L210 319L211 319L210 313M465 313L466 314L465 313M469 313L469 314L474 314L469 313M497 313L498 314L497 313M454 314L454 318L455 318L454 314M476 314L476 315L481 315L476 314M496 314L497 315L496 314M463 315L464 316L463 315M484 315L484 316L488 316L484 315M494.667 315.333L495.333 315.667L494.667 315.333M198 316L198 351L199 351C199 342.84 202.527 322.224 198 316M218 316L218 350L219 350C219 342.037 222.417 322.074 218 316M462 316L462 320L463 320L462 316M491.667 316.333L492.333 316.667L491.667 316.333M453 324L453 331L454 331L453 324M461 325L461 335L462 335L461 325M445 334L445 335L449 335L445 334M443 335L444 336L443 335M450 335L451 336L450 335M442 336L443 337L442 336M452 336L453 337L452 336M440 338L441 339L440 338M460 339L460 343L461 343L460 339M439.333 340.667L439.667 341.333L439.333 340.667M447 343L447 354L448 354L449 343L447 343M269 344L270 345L269 344M278.667 344.333L279.333 344.667L278.667 344.333M449 344L450 345L449 344M267 345L268 346L267 345M280 345L281 346L280 345M451 345L452 346L451 345M266 346L267 347L266 346M439 346L439 356L440 356L439 346M459.333 346.667L459.667 347.333L459.333 346.667M265 347L266 348L265 347M264 348L265 349L264 348M283 348L284 349L283 348z"
     id="path198" />
  <path
     style="fill:#61beac; stroke:none;"
     d="M263 349L264 350L263 349M454.333 349.667L454.667 350.333L454.333 349.667M458.333 349.667L458.667 350.333L458.333 349.667M209.333 350.667L209.667 351.333L209.333 350.667M262 350L263 351L262 350M284 350L285 351L284 350M261 351L262 352L261 351M285.333 351.667L285.667 352.333L285.333 351.667M455.333 351.667L455.667 352.333L455.333 351.667M189.333 352.667L189.667 353.333L189.333 352.667M217.333 352.667L217.667 353.333L217.333 352.667M260 352L261 353L260 352M272 352L273 353L272 352M276.333 352.667L276.667 353.333L276.333 352.667M457.333 352.667L457.667 353.333L457.333 352.667M259 353L260 354L259 353M271 353L272 354L271 353M286 353L287 354L286 353M197 354L197 357L198 357L197 354M208.333 354.667L208.667 355.333L208.333 354.667M258 354L259 355L258 354M270 354L271 355L270 354M277 354L278 355L277 354M456 354L457 355L456 354M188.333 355.667L188.667 356.333L188.333 355.667M257 355L258 356L257 355M269 355L270 356L269 355M287 355L288 356L287 355M430 355L430 356L434 356L430 355M216.333 356.667L216.667 357.333L216.333 356.667M256 356L257 357L256 356M268 356L269 357L268 356M278 356L279 357L278 356M288 356L289 357L288 356M428 356L429 357L428 356M436 356L437 357L436 356M255 357L256 358L255 357M267 357L268 358L267 357M426 357L427 358L426 357M437 357L438 358L437 357M196 358L197 359L196 358M207.333 358.667L207.667 359.333L207.333 358.667M254 358L255 359L254 358M266 358L267 359L266 358M425 358L426 359L425 358M439 358L440 359L439 358M186 359L187 360L186 359M253 359L254 360L253 359M265 359L266 360L265 359M280 359L281 360L280 359M290 359L291 360L290 359M424 359L425 360L424 359M185 360L186 361L185 360M195 360L196 361L195 360M215 360L215 363L216 363L215 360M252 360L253 361L252 360M264 360L265 361L264 360M291 360L292 361L291 360M251 361L252 362L251 361M263 361L264 362L263 361M281 361L282 362L281 361M292 361L293 362L292 361M184 362L185 363L184 362M194 362L195 363L194 362M206 362L206 365L207 365L206 362M250 362L251 363L250 362M262 362L263 363L262 362M282 362L283 363L282 362M293 362L294 363L293 362M422 362L423 363L422 362M447 362L447 365L448 365L447 362M182 363L183 364L182 363M249 363L250 364L249 363M261 363L262 364L261 363M283 363L284 364L283 363M421 363L422 364L421 363M193 364L194 365L193 364M214.333 364.667L214.667 365.333L214.333 364.667M248 364L249 365L248 364M260 364L261 365L260 364M420 364L421 365L420 364M431 364L432 365L431 364M433 364L434 365L433 364M180 365L181 366L180 365M192 365L193 366L192 365M247 365L248 366L247 365M259 365L260 366L259 365M419 365L420 366L419 365M430 365L430 420L431 420L431 380L430 365M434 365L435 366L434 365z"
     id="path202" />
  <path
     style="fill:#61beac; stroke:none;"
     d="M178 366L179 367L178 366M191 366L192 367L191 366M205.333 366.667L205.667 367.333L205.333 366.667M246 366L247 367L246 366M258 366L259 367L258 366M285 366L286 367L285 366M297 366L298 367L297 366M418 366L419 367L418 366M435 366L436 367L435 366M446.333 366.667L446.667 367.333L446.333 366.667M174.667 367.333L175.333 367.667L174.667 367.333M245 367L246 368L245 367M257 367L258 368L257 367M286 367L287 368L286 367M298 367L299 368L298 367M417 367L418 368L417 367M156 368L156 369L171 369L156 368M189 368L190 369L189 368M213.333 368.667L213.667 369.333L213.333 368.667M244 368L245 369L244 368M256 368L257 369L256 368M287 368L288 369L287 368M299 368L300 369L299 368M436 368L437 369L436 368M445.333 368.667L445.667 369.333L445.333 368.667M155 369L156 370L155 369M188 369L189 370L188 369M243 369L244 370L243 369M255 369L256 370L255 369M288 369L289 370L288 369M437.333 369.667L437.667 370.333L437.333 369.667M187 370L188 371L187 370M204.333 370.667L204.667 371.333L204.333 370.667M242 370L243 371L242 370M254 370L255 371L254 370M289 370L290 371L289 370M302 370L303 371L302 370M444 370L445 371L444 370M154 371L154 374L155 374L154 371M186 371L187 372L186 371M241 371L242 372L241 371M253 371L254 372L253 371M290 371L291 372L290 371M303 371L304 372L303 371M438.333 371.667L438.667 372.333L438.333 371.667M184 372L185 373L184 372M212.333 372.667L212.667 373.333L212.333 372.667M240 372L241 373L240 372M252 372L253 373L252 372M291 372L292 373L291 372M305 372L306 373L305 372M182 373L183 374L182 373M251 373L252 374L251 373M292 373L293 374L292 373M307 373L308 374L307 373M412 373L413 374L412 373M180 374L181 375L180 374M203.333 374.667L203.667 375.333L203.333 374.667M250 374L251 375L250 374M294 374L295 375L294 374M309 374L310 375L309 374M411 374L412 375L411 374M422 374L422 426L423 426L423 389L422 374M441 374L442 375L441 374M155 375L156 376L155 375M176 375L176 376L179 376L176 375M249 375L250 376L249 375M295 375L296 376L295 375M311 375L312 376L311 375M410 375L411 376L410 375M439.667 375.333L440.333 375.667L439.667 375.333M157 376L157 377L173 377L157 376M211.333 376.667L211.667 377.333L211.333 376.667M248 376L249 377L248 376M296 376L297 377L296 376M313 376L314 377L313 376M409 376L410 377L409 376M420 376L421 377L420 376M247 377L248 378L247 377M298 377L299 378L298 377M315.667 377.333L316.333 377.667L315.667 377.333M408 377L409 378L408 377M419 377L420 378L419 377M246 378L247 379L246 378M299 378L300 379L299 378M318.667 378.333L319.333 378.667L318.667 378.333M407 378L408 379L407 378M418 378L419 379L418 378M202 379L203 380L202 379M245 379L246 380L245 379M301 379L302 380L301 379M322.667 379.333L323.333 379.667L322.667 379.333M405 379L406 380L405 379M210 380L210 414L211 414C211 406.037 214.417 386.074 210 380M244 380L245 381L244 380M302 380L303 381L302 380M326 380L326 381L329 381L326 380M403.667 380.333L404.333 380.667L403.667 380.333M243 381L244 382L243 381M252 381C246.391 388.894 250 408.315 250 418C250 422.402 249.049 426.444 253 429C246.16 414.56 255.692 394.539 252 381z"
     id="path206" />
  <path
     style="fill:#f4fbf9; stroke:none;"
     d="M263 441C261.006 441 258.992 440.917 257 441C253.993 441.125 248.431 443.661 251.5 447.667C253.694 450.53 267.721 450.014 269.5 447C272.322 442.218 270.281 429.049 266.667 425.167C264.464 422.801 260.128 422.803 258.5 420C255.418 414.691 258 401.144 258 395C258 391.791 259.799 380.215 254 381.167C249.058 381.978 251 393.427 251 397C251 404.21 247.856 420.825 251.5 427C253.155 429.804 256.556 428.459 259 429.833C262.688 431.908 263 437.254 263 441z"
     id="path208" />
  <path
     style="fill:#61beac; stroke:none;"
     d="M256 381L257 382L256 381M304 381L305 382L304 381M332 381L332 382L337 382L332 381M401 381L402 382L401 381M242 382L243 383L242 382M257 382L258 383L257 382M306 382L307 383L306 382M342 382L342 383L379 383C372.474 378.254 350.552 382 342 382M399 382L400 383L399 382M241 383L242 384L241 383M308.667 383.333L309.333 383.667L308.667 383.333M380 383L381 384L380 383M240 384L241 385L240 384M258 384L258 421L259 421C259 412.448 262.746 390.526 258 384M311 384L312 385L311 384M398 384L398 426L399 426L399 396L398 384M412 384L413 385L412 384M239 385L240 386L239 385M314 385L315 386L314 385M382 385L382 412L383 412L382 385M411 385L412 386L411 385M238 386L239 387L238 386M316.667 386.333L317.333 386.667L316.667 386.333M410 386L411 387L410 386M226 387L226 427L227 427L227 398L226 387M237 387L238 388L237 387M320.667 387.333L321.333 387.667L320.667 387.333M408 387L409 388L408 387M236 388L237 389L236 388M325.667 388.333L326.333 388.667L325.667 388.333M406 388L406 413L408 421L406 388M235 389L236 390L235 389M330 389L330 390L333 390L330 389M234 390L234 421L235 421C235 413.625 238.088 395.621 234 390M339 390L339 391L349 391L339 390M374 391L374 415L375 415L374 391z"
     id="path210" />
  <path
     style="fill:#019579; stroke:none;"
     d="M655 395L656 396L655 395z"
     id="path212" />
  <path
     style="fill:#61beac; stroke:none;"
     d="M202.333 413.667L202.667 414.333L202.333 413.667M211 415L211 418L212 418L211 415M383.333 415.667L383.667 416.333L383.333 415.667M375.333 416.667L375.667 417.333L375.333 416.667M203 417L203 420L204 420L203 417M384 418L384 421L385 421L384 418M212.333 420.667L212.667 421.333L212.333 420.667M431 420L432 421L431 420M235 421L235 422L238 422L235 421M259.667 421.333L260.333 421.667L259.667 421.333M376.333 421.667L376.667 422.333L376.333 421.667M410 421L411 422L410 421M433.667 421.333L434.333 421.667L433.667 421.333M204 422L205 423L204 422M239 422L240 423L239 422M262.667 422.333L263.333 422.667L262.667 422.333M412 422L413 423L412 422M435.667 422.333L436.333 422.667L435.667 422.333M213 423L213 426L214 426L213 423M240 423L241 424L240 423M264 423L265 424L264 423M385.333 423.667L385.667 424.333L385.333 423.667M413 423L414 424L413 423M437 423L438 424L437 423M241 424L242 425L241 424M377 424L377 427L378 427L377 424M414 424L415 425L414 424M438 424L439 425L438 424M242 425L243 426L242 425M415 425L416 426L415 425M439 425L440 426L439 425M205.333 426.667L205.667 427.333L205.333 426.667M243 426L244 427L243 426M267 426L268 427L267 426M386 426L386 429L387 429L386 426M416 426L417 427L416 426M440 426L441 427L440 426M227 427L228 428L227 427M244.333 427.667L244.667 428.333L244.333 427.667M268 427L269 428L268 427M399 427L400 428L399 427M423 427L424 428L423 427M214.333 428.667L214.667 429.333L214.333 428.667M228 428L229 429L228 428M401 428L401 429L406 429L401 428M417.333 428.667L417.667 429.333L417.333 428.667M425 428L425 429L430 429L425 428M441.333 428.667L441.667 429.333L441.333 428.667M206 429L206 432L207 432L206 429M233.667 429.333L234.333 429.667L233.667 429.333M245 429L246 430L245 429M258 429L259 430L258 429M269.333 429.667L269.667 430.333L269.333 429.667M378 429L379 430L378 429M407 429L408 430L407 429M236 430L237 431L236 430M260 430L261 431L260 430M408 430L409 431L408 430M387 431L388 432L387 431M409 431L410 432L409 431M418 431L418 446L419 446L418 431M433 431L434 432L433 431M442 431L442 446L443 446L442 431M215.333 432.667L215.667 433.333L215.333 432.667M237 432L238 433L237 432M270 432L270 447L271 447L270 432M379 432L379 435L380 435L379 432M246 433L246 446L247 446L246 433M434 433L434 440L435 440L434 433M207.333 434.667L207.667 435.333L207.333 434.667M238 434L238 441L239 441L238 434M388.333 434.667L388.667 435.333L388.333 434.667M410 434L410 440L411 440L410 434M262 435L262 441L263 441L262 435M216 436L217 437L216 436M380.333 436.667L380.667 437.333L380.333 436.667M389.333 436.667L389.667 437.333L389.333 436.667M208.333 437.667L208.667 438.333L208.333 437.667M218 438L219 439L218 438M390 438L391 439L390 438M381 439L382 440L381 439M392 439L393 440L392 439M209 440L210 441L209 440M220.667 440.333L221.333 440.667L220.667 440.333M394 440L394 441L410 441L394 440M425 440L425 441L434 441L425 440M252.667 441.333L253.333 441.667L252.667 441.333M382 441L383 442L382 441M210 442L211 443L210 442M251 442L252 443L251 442M383 442L384 443L383 442M211 443L212 444L211 443M250 443L250 447L251 447L250 443M384 443L385 444L384 443M422 443L422 446L423 446L422 443M212 444L213 445L212 444M213 445L214 446L213 445M386 445L387 446L386 445M214 446L215 447L214 446M387 446L388 447L387 446M216 447L217 448L216 447M245 447L246 448L245 447M269 447L270 448L269 447M389.667 447.333L390.333 447.667L389.667 447.333M417 447L418 448L417 447M423 447L424 448L423 447M441 447L442 448L441 447M218.667 448.333L219.333 448.667L218.667 448.333M244 448L245 449L244 448M252 448L253 449L252 448M268 448L269 449L268 448M392 448L392 449L417 449L392 448M425 448L425 449L440 449L425 448z"
     id="path214" />
  <path
     style="fill:#019579; stroke:none;"
     d="M514 601L515 602L514 601M222 638L223 639L222 638M439 638L440 639L439 638z"
     id="path216" />
</svg>
