<?xml version="1.0" encoding="utf-8"?>
<!-- Generator: Adobe Illustrator 16.0.0, SVG Export Plug-In . SVG Version: 6.00 Build 0)  -->
<!DOCTYPE svg PUBLIC "-//W3C//DTD SVG 1.1//EN" "http://www.w3.org/Graphics/SVG/1.1/DTD/svg11.dtd">
<svg version="1.1" id="Layer_1" xmlns="http://www.w3.org/2000/svg" xmlns:xlink="http://www.w3.org/1999/xlink" x="0px" y="0px"
	 width="595.28px" height="283.46px" viewBox="0 0 595.28 283.46" enable-background="new 0 0 595.28 283.46" xml:space="preserve">
<g>
	<path fill="#FFFFFF" d="M269.292,141.73c0,70.449-57.112,127.562-127.562,127.562c-70.449,0-127.559-57.113-127.559-127.562
		c0-70.446,57.11-127.559,127.559-127.559C212.18,14.172,269.292,71.284,269.292,141.73z"/>
	<path fill="#1E1E1E" d="M141.73,0C63.456,0,0,63.457,0,141.73c0,78.277,63.456,141.734,141.73,141.734
		c78.278,0,141.734-63.457,141.734-141.734C283.464,63.457,220.008,0,141.73,0z M141.73,259.76
		c-65.076,0-118.024-52.949-118.024-118.027c0-65.08,52.948-118.024,118.024-118.024c65.079,0,118.027,52.944,118.027,118.024
		C259.757,206.811,206.809,259.76,141.73,259.76z"/>
	<polygon fill="#1E1E1E" points="212.598,86.583 212.598,86.583 212.598,70.864 196.878,70.864 141.73,126.012 86.585,70.867 
		70.867,70.867 70.867,212.598 94.265,212.598 94.265,109.982 141.73,157.449 	"/>
	<polygon fill="#13171B" points="103.224,133.23 103.224,164.664 141.73,203.175 189.198,155.707 189.198,212.553 212.599,212.553 
		212.599,100.87 141.73,171.737 	"/>
</g>
<g>
	<path fill="#E41F18" d="M595.275,142.156C595.275,63.841,531.941,0,453.932,0c-78.783,0-142.121,63.841-142.121,142.156
		c0,77.462,63.338,141.309,142.121,141.309C531.941,283.465,595.275,219.618,595.275,142.156"/>
	<path fill="#FFFFFF" d="M402.918,214.016c0-22.459,0-22.459,0-22.459c26.75-25.266,26.75-25.266,26.75-25.266
		c13.365-12.633,41.383-31.57,41.383-51.932c0-15.436-13.371-22.447-27.383-22.447c-12.096,0-24.826,4.207-35.654,9.822
		c-1.268-23.863-1.268-23.863-1.268-23.863c14.004-4.92,28.016-8.422,42.658-8.422c26.742,0,52.852,10.525,52.852,41.4
		c0,26.672-26.742,48.422-46.484,64.562c-16.555,16.844-16.555,16.844-16.555,16.844c64.951,0,64.951,0,64.951,0
		c0,21.76,0,21.76,0,21.76H402.918z"/>
</g>
</svg>
