<?xml version="1.0" encoding="utf-8"?>
<!-- Generator: Adobe Illustrator 16.0.0, SVG Export Plug-In . SVG Version: 6.00 Build 0)  -->
<!DOCTYPE svg PUBLIC "-//W3C//DTD SVG 1.1//EN" "http://www.w3.org/Graphics/SVG/1.1/DTD/svg11.dtd">
<svg version="1.1" id="Layer_1" xmlns="http://www.w3.org/2000/svg" xmlns:xlink="http://www.w3.org/1999/xlink" x="0px" y="0px"
	 width="595.28px" height="283.46px" viewBox="0 0 595.28 283.46" enable-background="new 0 0 595.28 283.46" xml:space="preserve">
<g>
	<path fill="#FFFFFF" d="M269.292,141.73c0,70.449-57.112,127.562-127.562,127.562c-70.449,0-127.559-57.113-127.559-127.562
		c0-70.446,57.11-127.559,127.559-127.559C212.18,14.172,269.292,71.284,269.292,141.73z"/>
	<path fill="#1E1E1E" d="M141.73,0C63.456,0,0,63.457,0,141.73c0,78.277,63.456,141.734,141.73,141.734
		c78.278,0,141.734-63.457,141.734-141.734C283.464,63.457,220.008,0,141.73,0z M141.73,259.76
		c-65.076,0-118.024-52.949-118.024-118.027c0-65.08,52.948-118.024,118.024-118.024c65.079,0,118.027,52.944,118.027,118.024
		C259.757,206.811,206.809,259.76,141.73,259.76z"/>
	<polygon fill="#1E1E1E" points="212.598,86.583 212.598,86.583 212.598,70.864 196.878,70.864 141.73,126.012 86.585,70.867 
		70.867,70.867 70.867,212.598 94.265,212.598 94.265,109.982 141.73,157.449 	"/>
	<polygon fill="#13171B" points="103.224,133.23 103.224,164.664 141.73,203.175 189.198,155.707 189.198,212.553 212.599,212.553 
		212.599,100.87 141.73,171.737 	"/>
</g>
<g>
	<path fill="#005CA5" d="M595.275,141.727C595.275,63.555,530.989,0,453.539,0c-78.224,0-141.729,63.555-141.729,141.727
		c0,78.18,63.505,141.738,141.729,141.738C530.989,283.465,595.275,219.906,595.275,141.727"/>
	<path fill="#FFFFFF" d="M445.911,215.434c-14.125,0-28.251-0.715-41.723-5.707c1.271-21.364,1.271-21.364,1.271-21.364
		c11.565,4.277,24.4,6.41,36.6,6.41c14.125,0,33.385-6.41,33.385-23.493c0-17.803-19.897-22.08-34.031-22.08
		c-18.614,0-18.614,0-18.614,0c0-19.215,0-19.215,0-19.215c15.409,0,15.409,0,15.409,0c14.768,0,35.311-4.992,35.311-22.076
		c0-15.665-19.264-19.231-31.459-19.231c-11.554,0-22.47,2.848-32.744,7.129c-1.926-22.077-1.926-22.077-1.926-22.077
		c13.483-3.564,26.326-5.697,40.443-5.697c23.765,0,56.497,7.83,56.497,37.025c0,17.803-12.196,29.908-28.886,34.186
		c17.335,2.129,31.457,14.234,31.457,32.752C506.901,204.747,475.444,215.434,445.911,215.434"/>
</g>
</svg>
